HIERARCHY
ROOT Hip
{
	OFFSET 0.000000 0.000000 0.000000 
	CHANNELS 6 Xposition Yposition Zposition Xrotation Yrotation Zrotation
	JOINT LowerSpine
	{
		OFFSET 0.000000 8.345300 -5.129200 
		CHANNELS 3 Xrotation Yrotation Zrotation
		JOINT MiddleSpine
		{
			OFFSET 10.856900 0.000000 0.000000 
			CHANNELS 3 Xrotation Yrotation Zrotation
			JOINT Chest
			{
				OFFSET 15.298400 0.000000 0.000000 
				CHANNELS 3 Xrotation Yrotation Zrotation
				JOINT Neck
				{
					OFFSET 25.661800 -0.598600 0.000000 
					CHANNELS 3 Xrotation Yrotation Zrotation
					JOINT Head
					{
						OFFSET 8.882900 0.000000 0.000000 
						CHANNELS 3 Xrotation Yrotation Zrotation
						End Site
						{
							OFFSET 19.739901 0.000000 0.000000 
						}
					}
				}
				JOINT RClavicle
				{
					OFFSET 23.687799 0.000000 3.158400 
					CHANNELS 3 Xrotation Yrotation Zrotation
					JOINT RShoulder
					{
						OFFSET -15.594500 -3.948000 0.987000 
						CHANNELS 3 Xrotation Yrotation Zrotation
						JOINT RForearm
						{
							OFFSET -31.337000 0.000000 0.197400 
							CHANNELS 3 Xrotation Yrotation Zrotation
							JOINT RHand
							{
								OFFSET -26.402100 0.000000 0.000000 
								CHANNELS 3 Xrotation Yrotation Zrotation
								End Site
								{
									OFFSET -15.791900 -0.987000 0.000000 
								}
							}
						}
					}
				}
				JOINT LClavicle
				{
					OFFSET 23.687799 0.000000 -3.158400 
					CHANNELS 3 Xrotation Yrotation Zrotation
					JOINT LShoulder
					{
						OFFSET -15.594500 -3.948000 -0.987000 
						CHANNELS 3 Xrotation Yrotation Zrotation
						JOINT LForearm
						{
							OFFSET -31.337000 0.000000 -0.197400 
							CHANNELS 3 Xrotation Yrotation Zrotation
							JOINT LHand
							{
								OFFSET -26.402100 0.000000 0.000000 
								CHANNELS 3 Xrotation Yrotation Zrotation
								End Site
								{
									OFFSET -15.791900 -0.987000 0.000000 
								}
							}
						}
					}
				}
			}
		}
	}
	JOINT RThigh
	{
		OFFSET -8.882900 0.448100 0.000000 
		CHANNELS 3 Xrotation Yrotation Zrotation
		JOINT RShin
		{
			OFFSET 43.131599 0.000000 -0.493500 
			CHANNELS 3 Xrotation Yrotation Zrotation
			JOINT RFoot
			{
				OFFSET 0.000000 -44.725601 -0.404700 
				CHANNELS 3 Xrotation Yrotation Zrotation
				JOINT RToe
				{
					OFFSET 0.000000 -3.933200 12.195300 
					CHANNELS 3 Xrotation Yrotation Zrotation
					End Site
					{
						OFFSET 6.772500 0.000000 0.000000 
					}
				}
			}
		}
	}
	JOINT LThigh
	{
		OFFSET 8.882900 0.448100 0.000000 
		CHANNELS 3 Xrotation Yrotation Zrotation
		JOINT LShin
		{
			OFFSET 43.131599 0.000000 0.493500 
			CHANNELS 3 Xrotation Yrotation Zrotation
			JOINT LFoot
			{
				OFFSET 0.000000 -44.725601 0.404700 
				CHANNELS 3 Xrotation Yrotation Zrotation
				JOINT LToe
				{
					OFFSET 0.000000 -3.933200 -12.195300 
					CHANNELS 3 Xrotation Yrotation Zrotation
					End Site
					{
						OFFSET 6.772500 0.000000 0.000000 
					}
				}
			}
		}
	}
}
MOTION
Frames: 17
Frame Time: 0.016949
10.170744 89.615326 -13.734396 22.904289 9.511027 -0.509588 -89.999992 -90.000000 0.000000 -0.334915 -0.488291 0.205226 -1.109102 -1.634415 0.680695 0.000000 0.000000 0.000000 0.000000 0.000000 0.000000 90.053871 0.501927 -96.784447 -36.506039 42.773819 8.127790 0.234226 4.761278 -5.882833 0.000000 0.000000 0.000000 -90.033653 -0.368348 -94.969063 -8.413852 -51.244640 -23.376261 -0.291035 -5.310227 -5.887827 0.000000 0.000000 0.000000 13.426820 81.439888 -159.720596 89.109512 61.663971 90.461617 5.854312 0.086778 0.032314 168.398605 90.000000 0.000000 109.436302 83.495956 117.910400 -89.689713 -31.915310 90.055161 9.528753 -1.525827 0.858684 180.765793 -90.000000 0.000000 
10.271988 89.395844 -13.687192 22.912519 9.352146 -0.356398 -89.999992 -90.000000 0.000000 -0.359576 -0.444924 0.191952 -1.192447 -1.489363 0.634888 0.000000 0.000000 0.000000 0.000000 0.000000 0.000000 90.058693 0.530102 -97.168419 -35.217609 40.324360 7.346370 0.203106 4.460159 -5.880332 0.000000 0.000000 0.000000 -90.033363 -0.366169 -94.939484 -8.348507 -48.811741 -22.676229 -0.275463 -5.159838 -5.886406 0.000000 0.000000 0.000000 13.870670 81.344078 -161.255600 89.043678 63.395069 90.518280 7.147170 -0.020068 -0.024971 168.483795 90.000000 0.000000 108.729103 83.390297 118.242302 -89.680061 -32.732552 90.059479 9.933792 -1.534362 0.873706 181.036896 -90.000000 0.000000 
10.363532 89.225868 -13.595988 22.856390 9.266666 -0.187283 -89.999992 -90.000000 0.000000 -0.385055 -0.390274 0.191752 -1.278365 -1.306523 0.631396 0.000000 0.000000 0.000000 0.000000 0.000000 0.000000 90.063477 0.557072 -97.536438 -33.831329 37.659691 6.818559 0.154807 3.992344 -5.876772 0.000000 0.000000 0.000000 -90.032997 -0.363463 -94.902817 -8.498744 -46.443260 -22.007210 -0.268837 -5.095829 -5.885815 0.000000 0.000000 0.000000 14.543370 81.193153 -162.595505 88.991592 64.632729 90.563828 7.994210 0.050159 -0.010220 168.616196 90.000000 0.000000 107.476700 83.315773 119.408302 -89.674942 -33.159592 90.061829 10.289310 -1.335688 0.776348 181.360306 -90.000000 0.000000 
10.453275 89.099892 -13.543684 22.840000 9.428945 0.014426 -89.999992 -90.000000 0.000000 -0.406801 -0.327948 0.199420 -1.351615 -1.098714 0.656190 0.000000 0.000000 0.000000 0.000000 0.000000 0.000000 90.067886 0.580908 -97.862007 -32.397579 34.938660 6.280246 0.135344 3.803672 -5.875449 0.000000 0.000000 0.000000 -90.032516 -0.359904 -94.854523 -8.673823 -44.099110 -21.130630 -0.293260 -5.331707 -5.888033 0.000000 0.000000 0.000000 16.035660 80.907562 -164.587997 88.950653 65.533730 90.600052 8.073732 0.425223 0.143713 169.839096 90.000000 0.000000 105.278603 83.106537 121.432198 -89.669823 -33.583500 90.064209 10.621110 -1.389503 0.822877 181.265106 -90.000000 0.000000 
10.505719 89.021713 -13.581379 22.924990 9.609488 0.174949 -89.999992 -90.000000 0.000000 -0.419938 -0.261609 0.208035 -1.396154 -0.877882 0.686026 0.000000 0.000000 0.000000 0.000000 0.000000 0.000000 90.071327 0.599120 -98.111023 -31.203220 32.417278 5.996082 0.155551 3.999556 -5.876825 0.000000 0.000000 0.000000 -90.031731 -0.353925 -94.773460 -8.874157 -41.494640 -20.021049 -0.337269 -5.756300 -5.892286 0.000000 0.000000 0.000000 17.207359 80.662300 -166.250107 88.923241 66.104263 90.624474 7.592795 0.638757 0.254726 172.017700 90.000000 0.000000 104.018204 82.855598 122.400299 -89.665443 -33.943501 90.066277 10.975970 -1.984801 1.162034 180.629196 -90.000000 0.000000 
10.501263 89.024742 -13.605475 23.013439 9.495106 0.278902 -89.999992 -90.000000 0.000000 -0.420773 -0.196358 0.211238 -1.399801 -0.660480 0.698497 0.000000 0.000000 0.000000 0.000000 0.000000 0.000000 90.073227 0.608958 -98.245598 -30.230061 30.324560 6.140483 0.160736 4.049796 -5.877189 0.000000 0.000000 0.000000 -90.030403 -0.343699 -94.634941 -9.235407 -38.606468 -18.780060 -0.375727 -6.126815 -5.896267 0.000000 0.000000 0.000000 17.274071 80.642868 -166.441696 88.931793 65.929123 90.616837 7.101402 0.503492 0.187761 173.011398 90.000000 0.000000 104.443901 82.798798 122.002701 -89.667999 -33.733791 90.065071 11.141990 -2.534272 1.469290 180.126205 -90.000000 0.000000 
10.526107 89.094566 -13.546771 23.021200 9.042416 0.490206 -89.999992 -90.000000 0.000000 -0.406612 -0.138451 0.205658 -1.353474 -0.467113 0.681671 0.000000 0.000000 0.000000 0.000000 0.000000 0.000000 90.072983 0.607694 -98.228317 -29.308649 28.738001 6.288415 0.144771 3.895063 -5.876083 0.000000 0.000000 0.000000 -90.028374 -0.327722 -94.418610 -9.721929 -35.615540 -17.580870 -0.413585 -6.491040 -5.900428 0.000000 0.000000 0.000000 17.310049 80.706627 -166.052002 88.981392 64.863182 90.572823 6.554495 0.542181 0.143340 172.238907 90.000000 0.000000 105.096001 82.815399 121.778503 -89.677017 -32.987831 90.060867 11.026170 -2.531644 1.479709 180.093597 -90.000000 0.000000 
10.572650 89.175087 -13.480367 23.016430 8.409608 0.763438 -89.999992 -90.000000 0.000000 -0.375614 -0.092908 0.192407 -1.250865 -0.314545 0.638946 0.000000 0.000000 0.000000 0.000000 0.000000 0.000000 90.070396 0.594204 -98.043716 -28.413389 27.230789 6.133597 0.166478 4.105438 -5.877597 0.000000 0.000000 0.000000 -90.025589 -0.305151 -94.113167 -10.127880 -32.792309 -16.740000 -0.447119 -6.813228 -5.904312 0.000000 0.000000 0.000000 17.305799 80.772957 -165.325302 89.057426 63.049789 90.506363 5.818780 0.691562 0.182390 170.479401 90.000000 0.000000 105.404503 82.849907 121.852303 -89.684929 -32.322880 90.057281 10.874910 -2.309627 1.379864 180.371002 -90.000000 0.000000 
10.538294 89.269402 -13.440763 23.057541 7.731285 0.925463 -89.999992 -90.000000 0.000000 -0.328130 -0.060854 0.176687 -1.093040 -0.206721 0.587564 0.000000 0.000000 0.000000 0.000000 0.000000 0.000000 90.065666 0.568987 -97.699127 -27.525391 25.407049 5.879364 0.241552 4.832129 -5.883447 0.000000 0.000000 0.000000 -90.022217 -0.276267 -93.722527 -10.346910 -30.221439 -16.292419 -0.469744 -7.030355 -5.907039 0.000000 0.000000 0.000000 16.099100 80.924347 -163.196304 89.151283 60.456291 90.426300 5.150384 0.536670 0.151743 167.831604 90.000000 0.000000 105.936096 83.072807 121.558502 -89.691017 -31.805710 90.054581 11.040350 -2.315136 1.394104 180.554901 -90.000000 0.000000 
10.421839 89.433731 -13.359359 23.069309 7.060471 1.023298 -89.999992 -90.000000 0.000000 -0.268532 -0.039085 0.165518 -0.894445 -0.133043 0.551089 0.000000 0.000000 0.000000 0.000000 0.000000 0.000000 90.059601 0.535292 -97.239189 -26.712240 23.667641 5.732826 0.305150 5.446518 -5.889144 0.000000 0.000000 0.000000 -90.018570 -0.242802 -93.270370 -10.519520 -27.768520 -15.681520 -0.477432 -7.104098 -5.907985 0.000000 0.000000 0.000000 13.964970 81.143173 -159.598999 89.261627 56.781750 90.335800 4.319474 0.105485 0.037779 164.928802 90.000000 0.000000 106.818199 83.424797 121.173203 -89.701439 -30.906851 90.050072 11.292300 -2.343201 1.396860 180.447296 -90.000000 0.000000 
10.270782 89.688354 -13.244656 23.079840 6.583699 1.117061 -89.999992 -90.000000 0.000000 -0.205230 -0.022458 0.164271 -0.682451 -0.075724 0.548122 0.000000 0.000000 0.000000 0.000000 0.000000 0.000000 90.053253 0.498214 -96.733856 -25.978230 22.031040 5.600494 0.345726 5.837857 -5.893134 0.000000 0.000000 0.000000 -90.015038 -0.207901 -92.799141 -10.936050 -25.554390 -14.700860 -0.432519 -6.673008 -5.902598 0.000000 0.000000 0.000000 11.745920 81.298813 -155.147507 89.378212 51.952229 90.245903 2.507944 -0.496820 -0.138870 163.564301 90.000000 0.000000 107.670998 83.697723 121.245399 -89.719643 -29.299919 90.042587 10.831050 -1.860912 1.093211 180.403900 -90.000000 0.000000 
10.117226 90.005280 -13.152551 23.235069 6.319811 1.241760 -89.999992 -90.000000 0.000000 -0.148084 -0.007347 0.173519 -0.487632 -0.020409 0.582430 0.000000 0.000000 0.000000 0.000000 0.000000 0.000000 90.047562 0.463184 -96.257133 -25.248079 20.172970 5.348761 0.417917 6.532717 -5.900912 0.000000 0.000000 0.000000 -90.012009 -0.175261 -92.358879 -11.492350 -23.370621 -13.580970 -0.366152 -6.034612 -5.895253 0.000000 0.000000 0.000000 9.768322 81.217628 -150.618500 89.479233 46.751980 90.174492 -0.248988 -0.767459 -0.231076 164.778900 90.000000 0.000000 107.502899 83.863167 122.647301 -89.745697 -26.917870 90.032738 9.773242 -0.842313 0.502678 180.467407 -90.000000 0.000000 
9.985469 90.347496 -13.003547 23.487520 5.867941 1.488988 -89.999992 -90.000000 0.000000 -0.103205 0.008095 0.190092 -0.331224 0.037436 0.640794 0.000000 0.000000 0.000000 0.000000 0.000000 0.000000 90.043037 0.433896 -95.859039 -24.597191 18.729601 5.151044 0.471680 7.048964 -5.907269 0.000000 0.000000 0.000000 -90.009644 -0.147768 -91.988228 -11.907440 -20.587351 -12.144490 -0.390433 -6.268353 -5.897854 0.000000 0.000000 0.000000 8.756891 81.119560 -147.296402 89.554733 42.109440 90.126343 -2.926152 -0.323313 -0.008891 167.787903 90.000000 0.000000 106.559196 84.017143 125.019203 -89.775360 -24.093109 90.022850 8.941311 0.194890 -0.054245 180.318207 -90.000000 0.000000 
9.840413 90.709724 -12.691742 23.672729 5.060015 1.813248 -89.999992 -90.000000 0.000000 -0.070375 0.025053 0.210261 -0.221734 0.091411 0.699944 0.000000 0.000000 0.000000 0.000000 0.000000 0.000000 90.039574 0.410514 -95.541496 -24.041170 18.077629 5.287045 0.451248 6.852907 -5.904797 0.000000 0.000000 0.000000 -90.007896 -0.126180 -91.697357 -12.336300 -17.244890 -10.281800 -0.508127 -7.398251 -5.911859 0.000000 0.000000 0.000000 10.007800 81.640541 -146.321304 89.614304 37.922081 90.092293 -4.888098 0.013530 0.178585 171.125504 90.000000 0.000000 107.808098 84.151901 125.214996 -89.801407 -21.517040 90.015388 8.229487 0.785478 -0.352224 180.104095 -90.000000 0.000000 
9.564157 91.118942 -12.202639 23.647600 4.199883 1.999422 -89.999992 -90.000000 0.000000 -0.048546 0.040287 0.227539 -0.159131 0.128247 0.738088 0.000000 0.000000 0.000000 0.000000 0.000000 0.000000 90.036507 0.389067 -95.250427 -23.415310 17.502899 5.839456 0.448877 6.830146 -5.904513 0.000000 0.000000 0.000000 -90.006592 -0.108777 -91.462967 -13.016390 -14.114820 -8.304993 -0.580737 -8.092491 -5.921644 0.000000 0.000000 0.000000 13.748050 82.892403 -147.212997 89.673264 33.284939 90.062668 -6.225316 -0.396284 -0.093141 174.123199 90.000000 0.000000 112.910103 84.309357 121.577904 -89.821938 -19.431801 90.010353 7.183079 0.843443 -0.371727 180.058197 -90.000000 0.000000 
9.119700 91.537773 -11.642135 23.376490 3.428666 1.948545 -89.999992 -90.000000 0.000000 -0.023356 0.055823 0.230188 -0.100684 0.164740 0.763990 0.000000 0.000000 0.000000 0.000000 0.000000 0.000000 90.032883 0.362598 -94.891579 -22.600950 16.733721 6.612782 0.505412 7.372283 -5.911502 0.000000 0.000000 0.000000 -90.005409 -0.092117 -91.238609 -13.902450 -11.530890 -6.486992 -0.523652 -7.546885 -5.913877 0.000000 0.000000 0.000000 16.784170 84.291840 -146.746597 89.732941 28.079420 90.037514 -7.193610 -1.048490 -0.489601 176.900497 90.000000 0.000000 120.306702 84.655563 115.695396 -89.838547 -17.709080 90.006813 5.999376 1.026731 -0.425908 180.271194 -90.000000 0.000000 
8.656344 91.867798 -11.234731 23.112049 2.609415 1.790369 -89.999992 -90.000000 0.000000 -0.021346 0.055050 0.228877 -0.105648 0.147878 0.752589 0.000000 0.000000 0.000000 0.000000 0.000000 0.000000 90.027870 0.323850 -94.366753 -21.700979 16.127480 7.143090 0.588226 8.163996 -5.922696 0.000000 0.000000 0.000000 -90.004089 -0.072496 -90.974457 -14.761720 -9.009497 -4.835543 -0.392422 -6.287494 -5.898072 0.000000 0.000000 0.000000 15.077730 85.356323 -141.794006 89.784264 23.206039 90.020264 -7.690263 -1.532341 -0.643664 179.002701 90.000000 0.000000 128.097000 85.140793 109.071198 -89.850769 -16.424210 90.004539 5.070700 1.772608 -0.683391 180.796997 -90.000000 0.000000 
